HIERARCHY
ROOT Hips
{
	OFFSET -0.179506 -22.333345 2.821913
	CHANNELS 6 Xposition Yposition Zposition Zrotation Yrotation Xrotation 
	JOINT LeftUpLeg
	{
		OFFSET 6.951974 -9.140623 -0.681533
		CHANNELS 3 Zrotation Yrotation Xrotation
		JOINT LeftLeg
		{
			OFFSET 3.427654 -37.519855 -0.449580
			CHANNELS 3 Zrotation Yrotation Xrotation
			JOINT LeftFoot
			{
				OFFSET -1.359570 -39.796059 -4.369333
				CHANNELS 3 Zrotation Yrotation Xrotation
				JOINT LeftToe
				{
					OFFSET 2.635814 -5.579078 11.928840
					CHANNELS 3 Zrotation Yrotation Xrotation
					End Site
					{
						OFFSET 0.000000 0.000000 0.000000
					}
				}
			}
		}
	}
	JOINT RightUpLeg
	{
		OFFSET -6.767048 -9.052170 -0.431982
		CHANNELS 3 Zrotation Yrotation Xrotation
		JOINT RightLeg
		{
			OFFSET -3.829005 -38.256897 -0.885003
			CHANNELS 3 Zrotation Yrotation Xrotation
			JOINT RightFoot
			{
				OFFSET 1.577377 -39.841461 -4.231180
				CHANNELS 3 Zrotation Yrotation Xrotation
				JOINT RightToe
				{
					OFFSET -2.537174 -4.814398 12.334795
					CHANNELS 3 Zrotation Yrotation Xrotation
					End Site
					{
						OFFSET 0.000000 0.000000 0.000000
					}
				}
			}
		}
	}
	JOINT Spine
	{
		OFFSET -0.253288 10.896323 -2.669631
		CHANNELS 3 Zrotation Yrotation Xrotation
		JOINT Spine1
		{
			OFFSET 0.548704 13.518043 0.109247
			CHANNELS 3 Zrotation Yrotation Xrotation
			JOINT Spine2
			{
				OFFSET 0.145701 5.292222 2.542457
				CHANNELS 3 Zrotation Yrotation Xrotation
				JOINT Neck
				{
					OFFSET -0.277840 21.387037 -4.285703
					CHANNELS 3 Zrotation Yrotation Xrotation
					JOINT Head
					{
						OFFSET 0.515184 6.496960 5.134897
						CHANNELS 3 Zrotation Yrotation Xrotation
						End Site
						{
							OFFSET 0.000000 0.000000 0.000000
						}
					}
				}
				JOINT LeftShoulder
				{
					OFFSET 7.884473 12.174932 -3.408961
					CHANNELS 3 Zrotation Yrotation Xrotation
					JOINT LeftArm
					{
						OFFSET 9.097692 3.046888 -0.886815
						CHANNELS 3 Zrotation Yrotation Xrotation
						JOINT LeftForeArm
						{
							OFFSET 25.961220 -1.277207 -2.745643
							CHANNELS 3 Zrotation Yrotation Xrotation
							JOINT LeftHand
							{
								OFFSET 24.923361 0.898606 -0.117091
								CHANNELS 3 Zrotation Yrotation Xrotation
								End Site
								{
									OFFSET 0.000000 0.000000 0.000000
								}
							}
						}
					}
				}
				JOINT RightShoulder
				{
					OFFSET -8.175920 11.883285 -3.861528
					CHANNELS 3 Zrotation Yrotation Xrotation
					JOINT RightArm
					{
						OFFSET -9.601238 3.255117 -0.914307
						CHANNELS 3 Zrotation Yrotation Xrotation
						JOINT RightForeArm
						{
							OFFSET -25.374195 -1.332924 -2.140099
							CHANNELS 3 Zrotation Yrotation Xrotation
							JOINT RightHand
							{
								OFFSET -25.529810 0.777228 -0.555919
								CHANNELS 3 Zrotation Yrotation Xrotation
								End Site
								{
									OFFSET 0.000000 0.000000 0.000000
								}
							}
						}
					}
				}
			}
		}
	}
}
MOTION
Frames: 10
Frame Time: 0.033333
-95.355331 -13.126884 93.370834 -125.137692 3.454087 81.323559 13.002515 8.353076 -0.886239 0.594967 15.125807 33.699139 -0.615461 4.825174 -28.100350 nan nan nan -11.114443 -8.637587 -10.116512 0.256086 -4.910390 22.179591 6.189262 4.013234 -10.027415 nan nan nan -5.518961 5.454854 4.241076 7.522313 -3.641353 10.343087 3.092036 0.796688 -1.495077 2.504864 -10.801338 7.742668 6.958423 -24.576126 8.812063 -7.922618 -15.624433 0.411576 -76.311037 -39.390874 31.113255 130.911461 -83.628067 -103.057204 12.662083 -30.394764 -35.739425 18.675256 7.754997 3.614663 44.152559 13.128332 -5.552756 -53.988636 42.751883 -44.530514 4.293616 18.883704 -24.651836 
-95.389694 -13.029796 93.308784 -125.323054 3.403630 81.409744 13.065447 8.419875 -0.893515 0.460010 15.131052 33.753994 -0.626159 4.929367 -28.165286 nan nan nan -11.141797 -8.420186 -10.438176 0.315434 -4.865276 22.654661 6.218010 3.911416 -10.366213 nan nan nan -5.475081 5.325859 4.135805 7.435602 -3.495475 10.261840 3.049931 0.755006 -1.311902 2.593497 -10.595493 7.461326 6.660655 -24.561008 9.206624 -7.891655 -15.551802 0.409097 -76.247181 -39.423974 30.935598 129.405479 -83.714449 -101.300523 12.730204 -30.425792 -35.647233 18.617488 7.723471 3.633862 44.278229 13.393153 -5.343065 -53.691887 42.674646 -44.055538 3.895251 18.681194 -25.229612 
-95.417641 -12.931044 93.225235 -125.477718 3.369571 81.553596 13.159301 8.411499 -0.951792 0.278431 15.166790 33.739689 -0.707313 4.956288 -28.140765 nan nan nan -11.173482 -8.281063 -10.860443 0.392632 -4.975029 23.230117 6.274817 3.818279 -10.679118 nan nan nan -5.552028 5.188222 3.974237 7.418382 -3.416812 10.277676 3.039950 0.736468 -1.161652 2.725749 -10.362184 7.080887 6.412833 -24.568501 9.412810 -7.645245 -15.373130 0.308823 -76.529552 -39.518894 30.942972 127.618607 -83.749728 -99.161603 12.871901 -30.460623 -35.988189 18.441343 7.610444 3.512675 44.508094 13.750723 -5.118374 -53.479708 42.618299 -43.279608 4.106629 18.647622 -25.397896 
-95.443733 -12.809813 93.157402 -125.606099 3.330920 81.728327 13.221923 8.362980 -1.054662 0.137374 15.254169 33.764476 -0.707694 5.062910 -28.232942 nan nan nan -11.228126 -8.239998 -11.317649 0.529671 -5.062746 23.801153 6.348902 3.727736 -10.931853 nan nan nan -5.609013 5.118679 3.821421 7.416242 -3.359176 10.289385 2.999213 0.731961 -1.121422 2.786811 -10.229105 6.830755 6.282626 -24.619871 9.584678 -7.563452 -15.311242 0.247860 -76.587036 -39.529291 30.960399 125.923209 -83.733353 -97.455482 12.787678 -30.366363 -36.232038 18.455141 7.538111 3.509410 44.512158 13.833714 -5.000685 -53.357583 42.720924 -42.870573 4.082183 18.464251 -25.086158 
-95.463150 -12.683240 93.097015 -125.753097 3.279572 81.911586 13.271599 8.337071 -1.171883 0.046181 15.387022 33.778563 -0.811238 5.112087 -28.266621 nan nan nan -11.263838 -8.201811 -11.808725 0.583099 -5.259654 24.370374 6.629186 3.817415 -11.195234 nan nan nan -5.678761 5.100018 3.757480 7.397073 -3.258723 10.154201 2.985898 0.702414 -1.147695 2.874710 -9.995579 6.730821 6.146813 -24.702941 9.802865 -7.493270 -15.294189 0.232991 -76.594878 -39.544598 30.915460 123.625589 -83.695116 -95.181800 12.281623 -30.531920 -36.074338 18.424074 7.477472 3.555980 44.619349 13.937944 -4.897408 -53.122374 42.763663 -42.465087 3.696149 18.327447 -25.025642 
-95.499702 -12.544850 93.048195 -125.812755 3.224934 81.994763 13.319617 8.403904 -1.187886 0.023396 15.404972 33.800182 -0.912958 5.077955 -28.314190 nan nan nan -11.313753 -8.283419 -12.104454 0.560383 -5.493274 24.861121 6.642543 4.062947 -11.494312 nan nan nan -5.724831 5.057815 3.732895 7.343724 -3.232591 10.073095 2.968195 0.672615 -1.151668 2.938417 -9.797176 6.716792 6.060724 -24.730637 9.893265 -7.375217 -15.299722 0.198114 -76.664457 -39.584573 30.804289 120.295743 -83.667077 -91.959002 12.127661 -30.813340 -35.768451 18.374139 7.480351 3.505131 44.736400 14.081075 -4.818817 -52.685927 42.708109 -42.095549 3.321971 18.458434 -25.389953 
-95.552689 -12.388316 93.003914 -125.813888 3.177489 81.986557 13.374334 8.484256 -1.058416 -0.048313 15.238017 33.716017 -0.990520 5.099309 -28.368586 nan nan nan -11.402524 -8.367501 -12.219092 0.521889 -5.777386 25.306810 6.286934 4.271649 -11.974107 nan nan nan -5.711676 4.997354 3.842310 7.259264 -3.255492 10.103486 2.923415 0.646998 -1.305162 2.955471 -9.624109 6.694705 5.937520 -24.785909 9.890333 -7.244810 -15.281423 0.168992 -76.734034 -39.590056 30.666332 117.881477 -83.619197 -89.533074 12.353523 -30.721086 -35.804827 18.346615 7.450985 3.358632 44.815165 14.195543 -4.775974 -52.160867 42.759554 -41.578382 2.669681 18.645750 -25.780712 
-95.589561 -12.220943 92.952278 -125.845520 3.139779 82.146533 13.442761 8.544039 -1.113552 -0.187294 15.076873 33.662692 -1.024373 5.152596 -28.470407 nan nan nan -11.449450 -8.360634 -12.548915 0.522730 -6.048194 25.768119 6.033544 4.375916 -12.464378 nan nan nan -5.721014 4.893894 3.773382 7.226309 -3.273450 10.027405 2.870094 0.693422 -1.366988 2.918502 -9.421690 6.734529 5.830969 -24.863110 9.857337 -7.270629 -15.260175 0.177286 -76.595543 -39.585875 30.502414 116.232081 -83.489197 -87.945609 12.262406 -30.574482 -35.578971 18.371834 7.366357 3.272574 44.792941 14.293544 -4.841421 -51.782387 42.917124 -41.208430 2.469247 18.658842 -25.714347 
-95.614433 -12.034341 92.894691 -125.940950 3.096947 82.417170 13.543799 8.646823 -1.283601 -0.306029 15.061046 33.670609 -1.034708 5.171147 -28.590624 nan nan nan -11.425882 -8.383389 -13.062307 0.535898 -6.190984 26.317879 5.841234 4.388111 -12.903936 nan nan nan -5.797483 4.751490 3.534976 7.214595 -3.241711 9.807773 2.862468 0.706205 -1.219819 2.885654 -9.269696 6.704548 5.756185 -24.858616 9.921227 -7.361959 -15.210939 0.174895 -76.395034 -39.566753 30.280230 114.707495 -83.289139 -86.579052 12.104775 -30.514404 -35.149463 18.415448 7.342591 3.367788 44.668648 14.510151 -4.952201 -51.321766 43.154730 -40.963400 2.497908 18.434493 -25.617618 
-95.646057 -11.819996 92.850060 -125.980312 3.088752 82.668945 13.665568 8.659906 -1.418554 -0.372920 15.100609 33.647251 -1.085256 5.144551 -28.690644 nan nan nan -11.370945 -8.410308 -13.470812 0.540327 -6.421759 26.821528 5.753019 4.414710 -13.275730 nan nan nan -5.895139 4.653668 3.266479 7.231517 -3.216883 9.735803 2.863353 0.624064 -1.161134 2.967802 -9.093780 6.647127 5.706845 -24.886793 9.978408 -7.448085 -15.099071 0.157449 -76.298217 -39.585908 30.206381 112.669005 -83.043958 -84.664721 12.285124 -30.501270 -35.136085 18.572321 7.341987 3.497351 44.393951 14.857752 -4.977500 -50.686810 43.259212 -40.482913 1.838778 18.317530 -25.634593 
